<svg class="img-fluid" id="outputsvg" xmlns="http://www.w3.org/2000/svg" style="transform: none; transform-origin: 50% 50%; cursor: move; max-height: 529.84px;" width="810" height="640" viewBox="0 0 8100 6400"><g id="l3mhPdWrToUZWN1uZextqt2" fill="rgb(129,0,0)" style="transform: none;"><g style="transform: none;"><path id="pyaD4bQas" d="M4308 4652 l-133 -107 -3 -1042 -2 -1041 131 -214 c73 -117 137 -219 143 -225 6 -7 191 -82 411 -166 1340 -516 1296 -500 1319 -489 11 6 75 55 141 109 l120 98 -4 250 c-2 138 -6 288 -10 334 l-6 83 -70 28 c-38 16 -164 67 -279 114 l-209 85 6 -165 c5 -125 3 -164 -6 -164 -6 0 -263 100 -569 223 l-558 222 0 687 c0 650 1 687 17 681 10 -4 261 -112 558 -239 l540 -233 3 -169 2 -169 273 -115 c149 -64 275 -113 278 -109 4 3 4 150 0 327 l-7 321 -141 228 -141 228 -578 259 c-319 142 -633 283 -699 312 -229 104 -374 166 -384 166 -5 0 -69 -48 -143 -108z"></path><path id="p10Lm3Pgk2" d="M3535 4012 c-66 -37 -336 -190 -600 -339 -264 -150 -488 -275 -498 -279 -17 -6 -17 9 -11 320 4 179 5 326 1 326 -3 0 -114 -63 -246 -141 l-241 -141 0 -75 c0 -96 -47 -1903 -54 -2088 l-6 -140 115 -95 c64 -52 122 -96 129 -98 7 -2 231 107 497 242 266 135 606 307 755 383 l271 137 125 236 126 235 3 693 3 693 -118 100 c-65 54 -121 99 -124 99 -4 0 -61 -31 -127 -68z m-128 -914 c-4 -90 -7 -242 -7 -339 l0 -177 -222 -118 c-123 -64 -268 -141 -323 -170 -55 -29 -179 -95 -275 -146 l-175 -94 -2 206 c-2 113 0 263 5 334 l7 128 110 60 c61 33 162 88 225 122 63 35 149 82 190 104 41 22 161 88 265 145 105 58 194 106 199 106 5 1 6 -66 3 -161z"></path><path id="pKUiN9Hhz" d="M3772 1784 c-134 -70 -241 -128 -239 -130 3 -3 870 -331 1485 -561 111 -42 200 -79 197 -82 -3 -3 -60 -31 -127 -62 -117 -55 -123 -56 -157 -44 -20 7 -272 101 -561 208 -980 364 -1102 408 -1114 405 -18 -5 -969 -485 -989 -500 -16 -12 -16 -21 -5 -115 6 -57 14 -107 17 -112 3 -5 357 -130 786 -279 429 -148 870 -301 980 -340 l200 -69 247 111 c136 61 248 114 248 117 0 3 -147 59 -327 123 -1039 371 -1343 482 -1343 486 0 7 239 120 254 120 10 0 1002 -356 1316 -472 83 -31 86 -31 260 -29 96 0 222 4 280 7 102 6 109 8 250 72 404 181 606 274 611 280 8 9 -18 213 -28 223 -5 4 -123 51 -263 104 -140 54 -581 224 -980 377 -399 154 -732 282 -740 284 -8 2 -124 -53 -258 -122z"></path></g></g><g id="l715USpQmd2aJGJDgY9fo1" fill="rgb(0,0,0)" style="transform: none;"><g style="transform: none;"><path id="pbRWTAcG4" d="M1806 6309 c-60 -14 -153 -68 -188 -108 -17 -19 -43 -60 -57 -91 -23 -49 -26 -67 -26 -165 0 -101 2 -115 29 -170 38 -79 134 -171 223 -216 65 -32 73 -34 173 -34 95 0 111 3 168 29 43 20 80 47 116 87 71 76 91 134 90 254 -1 129 -26 189 -118 281 -97 97 -180 137 -291 140 -44 2 -97 -1 -119 -7z m234 -138 c14 -9 37 -41 52 -71 92 -182 38 -399 -111 -449 -65 -21 -140 -5 -183 41 -63 68 -88 254 -48 361 25 67 85 127 137 137 52 11 123 2 153 -19z"></path><path id="pdv4mZRyd" d="M3505 6300 c-74 -24 -137 -75 -161 -132 -15 -36 -18 -78 -21 -263 -4 -285 -3 -279 -53 -294 -40 -12 -48 -28 -34 -65 5 -14 31 -16 185 -16 136 0 179 3 179 13 0 6 3 22 6 33 5 18 -1 24 -37 36 -58 19 -62 38 -57 278 4 223 14 260 78 293 49 25 168 20 207 -9 44 -33 51 -78 52 -304 1 -215 -3 -250 -25 -250 -27 0 -64 -24 -64 -41 0 -48 4 -49 151 -49 104 0 139 3 139 13 0 6 3 22 6 33 5 19 -1 24 -38 36 l-43 15 -6 74 c-4 41 -7 149 -8 240 -2 231 -25 290 -138 346 -77 37 -225 44 -318 13z"></path><path id="pwU6OLRnO" d="M4338 6301 c-74 -24 -119 -53 -167 -108 -60 -68 -84 -139 -84 -248 1 -150 53 -251 176 -339 106 -76 152 -89 287 -83 143 7 180 17 204 58 17 29 17 35 1 124 -9 52 -23 99 -30 105 -8 6 -26 10 -42 8 -27 -3 -28 -6 -36 -68 -4 -36 -13 -70 -20 -76 -39 -37 -167 -45 -233 -15 -104 47 -146 290 -74 430 41 81 112 121 214 121 81 0 97 -13 129 -105 24 -67 26 -70 57 -68 17 0 34 4 38 7 8 8 -25 227 -36 238 -17 17 -150 38 -237 37 -58 0 -110 -6 -147 -18z"></path><path id="pnYtF3vGl" d="M5837 6310 c-103 -26 -204 -105 -246 -195 -29 -61 -40 -191 -22 -271 25 -109 126 -223 260 -290 51 -26 65 -29 161 -29 97 0 110 2 170 31 36 18 79 45 96 61 109 103 142 271 83 428 -30 82 -136 188 -234 236 -59 28 -82 34 -150 36 -44 1 -97 -2 -118 -7z m231 -136 c85 -54 129 -275 79 -395 -49 -118 -170 -166 -281 -114 -84 40 -131 232 -90 367 24 80 83 147 139 158 51 10 123 2 153 -16z"></path><path id="p17R3ILwPH" d="M45 6298 c-13 -40 -9 -53 24 -68 18 -9 38 -25 43 -35 14 -23 22 -398 11 -494 l-8 -74 -43 -15 c-37 -12 -43 -17 -38 -36 3 -11 6 -27 6 -35 0 -11 42 -12 233 -9 216 4 236 5 285 27 83 37 132 108 132 192 0 49 -30 125 -65 166 -20 23 -62 55 -97 72 -53 27 -72 31 -140 31 l-78 0 0 88 c0 48 4 92 8 98 4 7 33 17 65 25 56 12 58 13 55 43 l-3 31 -193 3 c-149 2 -193 0 -197 -10z m425 -410 c25 -42 35 -123 20 -177 -14 -52 -56 -81 -118 -81 -36 0 -44 4 -52 26 -11 28 -14 223 -4 248 5 12 21 16 70 16 62 0 65 -1 84 -32z"></path><path id="pAOf8w2T7" d="M746 6288 c-10 -39 -7 -45 32 -60 51 -20 52 -27 52 -313 0 -286 -1 -289 -48 -301 -34 -8 -37 -12 -37 -44 l0 -35 240 0 c225 0 243 2 285 22 58 28 73 41 99 83 44 73 21 190 -52 260 -20 19 -37 40 -37 47 0 12 98 187 133 236 11 16 40 37 64 48 33 14 43 23 39 35 -3 9 -6 22 -6 30 0 11 -23 14 -122 14 l-123 -1 -33 -73 c-18 -40 -57 -113 -85 -162 -49 -82 -55 -89 -90 -95 l-38 -6 3 120 3 120 43 15 c43 14 46 20 36 60 -6 22 -8 22 -179 22 -171 0 -173 0 -179 -22z m417 -415 c34 -21 50 -160 22 -199 -20 -30 -65 -46 -116 -42 l-44 3 -3 122 -3 122 28 4 c31 5 101 -1 116 -10z"></path><path id="pKrxx6oQc" d="M2416 6288 c-10 -39 -7 -45 32 -60 51 -20 52 -27 52 -313 0 -286 -1 -289 -48 -301 -34 -8 -37 -12 -37 -44 l0 -35 209 -3 c226 -3 290 5 371 42 250 114 254 498 8 662 -97 64 -146 74 -378 74 -202 0 -203 0 -209 -22z m471 -113 c15 -12 41 -47 58 -80 25 -49 30 -73 33 -152 7 -153 -30 -247 -111 -284 -48 -21 -146 -26 -165 -7 -13 13 -18 501 -6 533 10 26 152 18 191 -10z"></path><path id="pDgkdluUa" d="M4946 6279 c-8 -41 -4 -45 53 -59 28 -6 53 -19 57 -28 11 -25 16 -459 7 -512 l-9 -45 -62 1 c-34 1 -65 4 -68 7 -4 3 -11 42 -17 86 l-11 81 -37 0 c-35 0 -38 -2 -43 -37 -17 -98 -21 -212 -10 -228 11 -14 51 -16 355 -16 315 -1 343 1 352 17 10 17 4 168 -9 232 -6 29 -10 32 -43 32 l-37 0 -11 -81 c-6 -44 -13 -82 -15 -85 -3 -2 -33 -5 -69 -6 l-64 -3 -7 45 c-8 56 -10 442 -2 491 6 33 9 36 63 50 55 14 56 15 56 49 l0 35 -211 3 -211 2 -7 -31z"></path><path id="pOXQO2P7W" d="M6450 6298 c0 -7 -3 -23 -6 -34 -5 -18 0 -24 31 -34 23 -8 40 -21 46 -37 10 -26 13 -514 3 -550 -4 -13 -12 -23 -20 -23 -29 0 -64 -24 -64 -44 1 -48 2 -48 251 -45 233 4 234 4 292 32 76 38 107 88 107 173 0 47 -6 69 -30 110 -16 29 -42 62 -57 74 l-28 22 34 62 c112 210 149 247 224 224 25 -8 44 -22 52 -39 22 -42 194 -516 214 -589 l18 -65 82 -10 c45 -6 84 -8 87 -4 2 5 54 153 115 331 61 178 116 332 124 344 7 11 32 26 55 33 38 11 41 14 38 44 l-3 32 -181 3 -182 2 -5 -27 c-7 -37 -4 -40 45 -53 38 -11 40 -13 35 -44 -3 -18 -12 -49 -21 -69 l-15 -37 -119 0 c-84 0 -123 4 -130 13 -8 9 -42 110 -42 123 0 1 15 6 33 9 54 12 64 21 59 54 l-4 31 -262 -1 -261 -1 -58 -116 c-31 -64 -71 -138 -87 -164 -27 -43 -34 -48 -65 -48 l-36 0 3 117 3 116 43 15 c43 14 46 20 36 60 -6 22 -8 22 -180 22 -132 0 -174 -3 -174 -12z m1210 -313 c0 -6 -6 -31 -14 -56 -8 -24 -26 -84 -41 -132 -14 -48 -30 -85 -35 -82 -9 6 -90 251 -90 273 0 6 34 10 90 9 61 0 90 -4 90 -12z m-788 -128 c37 -48 39 -153 4 -194 -22 -25 -31 -28 -88 -28 l-63 0 -3 122 -3 122 28 4 c52 9 107 -3 125 -26z"></path></g></g></svg>